<?xml version="1.0" standalone="no"?>
<!DOCTYPE svg PUBLIC "-//W3C//DTD SVG 20010904//EN"
 "http://www.w3.org/TR/2001/REC-SVG-20010904/DTD/svg10.dtd">
<svg version="1.0" xmlns="http://www.w3.org/2000/svg"
 width="2133.000000pt" height="2133.000000pt" viewBox="0 0 2133.000000 2133.000000"
 preserveAspectRatio="xMidYMid meet">

<g transform="translate(0.000000,2133.000000) scale(0.100000,-0.100000)"
fill="white" stroke="none">
<path d="M15190 19070 c-129 -29 -206 -53 -331 -105 -63 -26 -184 -77 -269
-112 -85 -36 -209 -87 -275 -114 -66 -28 -167 -70 -225 -94 -58 -24 -177 -74
-265 -110 -88 -37 -200 -84 -250 -105 -49 -21 -148 -62 -220 -91 -124 -50
-134 -56 -206 -128 -105 -105 -122 -151 -117 -316 5 -147 22 -188 124 -286 94
-90 134 -104 289 -104 134 1 84 -15 450 138 72 30 225 93 340 141 116 48 269
112 340 142 72 31 177 75 235 99 58 24 175 73 260 109 440 185 518 185 956 1
88 -37 211 -89 274 -115 122 -51 392 -164 625 -260 77 -32 201 -84 275 -115
74 -31 182 -76 240 -100 58 -24 177 -73 265 -110 216 -90 362 -151 535 -223
80 -33 217 -90 305 -127 210 -88 322 -135 480 -200 340 -141 415 -183 508
-286 63 -69 128 -183 164 -287 l28 -77 6 -815 c11 -1420 10 -11422 -1 -11545
-13 -134 -49 -245 -115 -355 -101 -167 -245 -269 -485 -343 -58 -18 -103 -21
-420 -26 -415 -7 -407 -5 -519 -118 -99 -99 -105 -113 -109 -272 -5 -181 2
-205 96 -303 44 -46 94 -87 125 -103 l51 -25 407 0 c372 0 418 2 516 21 324
62 581 199 823 439 124 123 189 204 266 333 53 89 123 259 148 358 15 60 16
594 16 6530 0 6364 0 6465 -19 6534 -46 166 -128 333 -239 485 -85 117 -282
306 -407 389 -158 106 -73 67 -960 437 -181 75 -386 160 -455 189 -69 29 -165
69 -215 90 -85 35 -167 69 -442 184 -65 27 -293 122 -508 211 -214 89 -444
184 -510 212 -66 27 -187 78 -270 112 -82 35 -201 84 -263 110 -256 107 -359
125 -702 125 -221 0 -279 -4 -350 -19z"/>
<path d="M12073 17800 c-23 -5 -55 -16 -71 -24 -16 -8 -90 -40 -163 -70 -449
-184 -460 -189 -606 -288 -171 -116 -360 -308 -466 -475 -95 -148 -161 -311
-199 -488 l-23 -110 -3 -2742 -2 -2743 -444 0 -443 0 47 193 c79 316 139 708
160 1027 13 209 13 686 0 895 -32 509 -128 1066 -285 1639 -121 447 -179 561
-391 773 -174 174 -369 283 -597 335 -75 17 -125 21 -274 20 -202 0 -285 -11
-418 -53 -179 -57 -318 -144 -469 -294 -127 -126 -190 -210 -256 -342 -98
-199 -123 -353 -114 -723 7 -287 -3 -461 -42 -695 -31 -185 -43 -234 -101
-410 -97 -297 -245 -559 -457 -815 -218 -262 -442 -454 -1136 -974 -348 -262
-696 -534 -886 -695 l-71 -60 -6 97 c-7 137 -25 181 -112 269 -43 43 -92 82
-121 95 l-49 23 -1510 0 -1510 0 -45 -21 c-52 -24 -141 -101 -182 -158 l-28
-39 0 -4247 0 -4247 28 -39 c41 -55 122 -129 170 -153 l41 -21 1526 0 1526 0
41 21 c54 27 153 122 183 174 39 68 45 128 45 460 l0 315 28 0 c43 0 237 -36
348 -64 294 -75 513 -182 799 -390 158 -115 355 -201 568 -248 l102 -23 2615
-5 2615 -5 75 -32 c96 -41 227 -78 339 -98 78 -13 405 -15 2801 -15 l2712 -1
55 25 c67 32 170 132 203 201 22 45 25 63 25 180 0 115 -3 136 -23 182 -29 64
-141 175 -209 206 l-48 22 -2335 3 -2335 2 41 88 c58 121 81 194 105 335 30
171 23 451 -14 607 -27 112 -98 286 -147 360 l-30 45 32 25 c288 224 475 506
539 815 25 119 27 462 3 585 -27 143 -97 317 -181 448 l-34 54 28 20 c54 41
239 234 285 298 115 162 194 356 223 546 20 130 19 351 -1 478 -28 177 -100
363 -194 502 l-28 42 49 37 c63 48 201 194 266 280 99 132 179 313 219 496 21
100 30 369 15 484 -43 323 -176 577 -422 809 -46 43 -115 101 -154 129 -81 58
-237 135 -346 171 -158 53 -208 56 -926 56 l-663 0 0 2598 c0 1645 4 2629 10
2683 14 120 49 233 100 322 61 107 110 164 200 228 76 54 148 88 580 267 145
60 217 106 274 175 64 78 76 117 76 256 0 167 -8 188 -103 287 -101 106 -144
126 -282 130 -55 2 -119 -1 -142 -6z m-3643 -2910 c122 -48 196 -116 245 -225
45 -100 197 -682 250 -960 37 -192 85 -541 107 -770 19 -203 16 -641 -6 -854
-48 -479 -163 -974 -327 -1407 -57 -153 -62 -306 -13 -410 26 -55 125 -156
186 -190 l53 -29 1835 -5 1835 -5 58 -22 c214 -82 313 -184 376 -387 24 -79
27 -149 7 -224 -19 -68 -67 -171 -108 -228 -44 -61 -159 -137 -261 -171 l-82
-28 -690 -5 -690 -5 -44 -23 c-54 -29 -133 -102 -172 -159 -44 -63 -63 -150
-56 -261 4 -67 12 -105 28 -139 33 -69 139 -176 202 -204 l52 -24 525 -5 c578
-6 556 -4 700 -73 82 -40 177 -132 218 -212 42 -84 72 -188 72 -250 0 -29 -10
-84 -21 -121 -53 -172 -132 -270 -273 -339 -146 -73 -164 -75 -713 -75 -469 0
-484 -1 -540 -22 -75 -27 -178 -125 -219 -206 -26 -53 -28 -66 -29 -172 0
-152 15 -196 100 -287 34 -38 87 -82 116 -98 l54 -30 370 -6 c411 -7 430 -9
559 -77 99 -52 164 -119 214 -222 43 -88 72 -182 72 -235 0 -53 -29 -147 -72
-235 -50 -103 -115 -170 -214 -222 -134 -71 -130 -71 -719 -77 l-530 -6 -46
-27 c-25 -14 -77 -60 -115 -100 -92 -97 -108 -143 -102 -301 5 -138 24 -181
124 -278 114 -109 87 -103 484 -110 227 -4 358 -10 383 -18 71 -23 130 -52
198 -97 148 -98 245 -323 212 -488 -48 -234 -166 -363 -403 -438 l-75 -23
-2585 0 -2585 0 -85 23 c-109 29 -224 84 -325 157 -347 251 -637 385 -1035
479 -112 27 -378 71 -497 82 l-73 7 0 1643 c0 1155 -3 1659 -11 1696 -15 72
-46 122 -116 189 -99 95 -125 104 -283 104 -116 0 -141 -3 -180 -21 -55 -25
-140 -101 -180 -159 -64 -93 -60 52 -60 -2307 l0 -2148 -967 0 -968 0 -1 3650
-1 3650 968 0 968 0 3 -972 3 -973 27 -58 c36 -76 129 -169 205 -205 53 -25
68 -27 183 -27 117 0 128 2 178 28 63 33 133 95 173 153 57 83 59 107 59 690
l0 531 167 168 c304 306 575 531 1233 1025 571 429 717 547 996 807 595 555
945 1170 1064 1873 47 273 52 347 59 765 6 390 8 413 29 470 46 123 111 195
228 250 105 50 194 54 294 15z"/>
<path d="M15285 17203 c-261 -40 -489 -163 -685 -369 -140 -148 -227 -296
-287 -489 -27 -89 -27 -94 -27 -345 0 -288 5 -319 83 -500 53 -124 129 -232
243 -351 266 -274 542 -381 942 -366 317 11 547 107 771 319 166 157 264 306
324 494 51 157 65 276 58 468 -9 230 -59 399 -173 581 -60 97 -221 267 -329
348 -104 78 -255 150 -380 183 -90 24 -121 27 -305 29 -113 2 -218 1 -235 -2z
m265 -828 c60 -12 173 -70 211 -109 70 -71 127 -220 115 -304 -7 -53 -54 -160
-92 -210 -38 -49 -119 -98 -207 -123 -69 -21 -83 -22 -134 -11 -80 17 -175 64
-221 110 -47 47 -98 148 -112 223 -18 95 41 251 123 325 59 54 221 120 267
109 8 -2 31 -7 50 -10z"/>
<path d="M15028 8747 l-114 -174 326 -6 c179 -4 368 -11 420 -17 115 -13 249
-49 338 -92 82 -39 197 -149 236 -225 l26 -53 -560 0 -560 0 -113 -172 -113
-173 695 -5 696 -5 -3 -55 c-11 -179 -133 -363 -313 -472 -181 -110 -380 -146
-796 -148 l-163 0 0 -165 0 -165 297 -372 c163 -205 365 -458 448 -563 83
-104 258 -324 388 -487 l237 -298 310 0 c171 0 310 2 310 5 0 5 -496 624
-1377 1720 l-42 52 77 7 c249 23 500 110 699 242 229 152 393 392 437 639 l11
60 225 3 225 3 112 175 112 174 -342 0 -342 0 -17 75 c-19 85 -65 187 -114
256 -19 25 -34 49 -34 53 0 3 141 6 313 6 l312 0 105 161 c58 89 109 168 113
175 7 12 -178 14 -1171 14 l-1179 0 -115 -173z"/>
</g>
</svg>
